<mxfile host="app.diagrams.net" modified="2024-01-13T09:58:30.250Z" agent="Mozilla/5.0 (Windows NT 10.0; Win64; x64) AppleWebKit/537.36 (KHTML, like Gecko) Chrome/120.0.0.0 Safari/537.36" etag="RFLNpAtBVBbG2jeKhxuE" version="22.1.16" type="github">
  <diagram id="R2lEEEUBdFMjLlhIrx00" name="Page-1">
    <mxGraphModel dx="1900" dy="1677" grid="1" gridSize="10" guides="1" tooltips="1" connect="1" arrows="1" fold="1" page="1" pageScale="1" pageWidth="850" pageHeight="1100" math="0" shadow="0" extFonts="Permanent Marker^https://fonts.googleapis.com/css?family=Permanent+Marker">
      <root>
        <mxCell id="0" />
        <mxCell id="1" parent="0" />
        <mxCell id="9sAcsaAmfvEGhJB_O84w-164" value="" style="rounded=0;whiteSpace=wrap;html=1;fillColor=none;strokeColor=none;" parent="1" vertex="1">
          <mxGeometry x="-440" y="-300" width="1930" height="1150" as="geometry" />
        </mxCell>
        <mxCell id="9sAcsaAmfvEGhJB_O84w-1" value="users" style="rounded=1;arcSize=10;whiteSpace=wrap;html=1;align=center;fontFamily=Noto Sans;fontSource=https%3A%2F%2Ffonts.googleapis.com%2Fcss%3Ffamily%3DNoto%2BSans;" parent="1" vertex="1">
          <mxGeometry x="150" y="210" width="100" height="40" as="geometry" />
        </mxCell>
        <mxCell id="9sAcsaAmfvEGhJB_O84w-3" value="&lt;font data-font-src=&quot;https://fonts.googleapis.com/css?family=Noto+Sans&quot; face=&quot;Noto Sans&quot;&gt;user_id&lt;/font&gt;" style="ellipse;whiteSpace=wrap;html=1;align=center;fontStyle=4;" parent="1" vertex="1">
          <mxGeometry x="-5" y="150" width="100" height="40" as="geometry" />
        </mxCell>
        <mxCell id="9sAcsaAmfvEGhJB_O84w-5" value="&lt;font data-font-src=&quot;https://fonts.googleapis.com/css?family=Noto+Sans&quot; face=&quot;Noto Sans&quot;&gt;first_name&lt;/font&gt;" style="ellipse;whiteSpace=wrap;html=1;align=center;" parent="1" vertex="1">
          <mxGeometry y="90" width="100" height="40" as="geometry" />
        </mxCell>
        <mxCell id="9sAcsaAmfvEGhJB_O84w-6" value="&lt;font data-font-src=&quot;https://fonts.googleapis.com/css?family=Noto+Sans&quot; face=&quot;Noto Sans&quot;&gt;last_name&lt;/font&gt;" style="ellipse;whiteSpace=wrap;html=1;align=center;" parent="1" vertex="1">
          <mxGeometry x="90" y="50" width="100" height="40" as="geometry" />
        </mxCell>
        <mxCell id="9sAcsaAmfvEGhJB_O84w-7" value="&lt;font face=&quot;Noto Sans&quot;&gt;email_id&lt;/font&gt;" style="ellipse;whiteSpace=wrap;html=1;align=center;" parent="1" vertex="1">
          <mxGeometry x="280" y="80" width="100" height="40" as="geometry" />
        </mxCell>
        <mxCell id="9sAcsaAmfvEGhJB_O84w-8" value="&lt;font data-font-src=&quot;https://fonts.googleapis.com/css?family=Noto+Sans&quot; face=&quot;Noto Sans&quot;&gt;password&lt;/font&gt;" style="ellipse;whiteSpace=wrap;html=1;align=center;" parent="1" vertex="1">
          <mxGeometry x="-20" y="260" width="100" height="40" as="geometry" />
        </mxCell>
        <mxCell id="9sAcsaAmfvEGhJB_O84w-9" value="&lt;font data-font-src=&quot;https://fonts.googleapis.com/css?family=Noto+Sans&quot; face=&quot;Noto Sans&quot;&gt;mobile&lt;/font&gt;" style="ellipse;whiteSpace=wrap;html=1;align=center;" parent="1" vertex="1">
          <mxGeometry x="30" y="320" width="100" height="40" as="geometry" />
        </mxCell>
        <mxCell id="9sAcsaAmfvEGhJB_O84w-11" value="&lt;font data-font-src=&quot;https://fonts.googleapis.com/css?family=Noto+Sans&quot; face=&quot;Noto Sans&quot;&gt;rating&lt;/font&gt;" style="ellipse;whiteSpace=wrap;html=1;align=center;" parent="1" vertex="1">
          <mxGeometry x="370" y="280" width="100" height="40" as="geometry" />
        </mxCell>
        <mxCell id="9sAcsaAmfvEGhJB_O84w-14" value="&lt;font face=&quot;Noto Sans&quot;&gt;user_image&lt;/font&gt;" style="ellipse;whiteSpace=wrap;html=1;align=center;" parent="1" vertex="1">
          <mxGeometry x="340" y="140" width="100" height="40" as="geometry" />
        </mxCell>
        <mxCell id="9sAcsaAmfvEGhJB_O84w-15" value="&lt;font data-font-src=&quot;https://fonts.googleapis.com/css?family=Noto+Sans&quot; face=&quot;Noto Sans&quot;&gt;Has a&lt;/font&gt;" style="shape=rhombus;perimeter=rhombusPerimeter;whiteSpace=wrap;html=1;align=center;" parent="1" vertex="1">
          <mxGeometry x="480" y="200" width="120" height="60" as="geometry" />
        </mxCell>
        <mxCell id="9sAcsaAmfvEGhJB_O84w-17" value="&lt;span style=&quot;border-bottom: 1px dotted&quot;&gt;&lt;font data-font-src=&quot;https://fonts.googleapis.com/css?family=Noto+Sans&quot; face=&quot;Noto Sans&quot;&gt;city_id&lt;/font&gt;&lt;/span&gt;" style="ellipse;whiteSpace=wrap;html=1;align=center;" parent="1" vertex="1">
          <mxGeometry x="280" y="330" width="100" height="40" as="geometry" />
        </mxCell>
        <mxCell id="9sAcsaAmfvEGhJB_O84w-18" value="products" style="rounded=1;arcSize=10;whiteSpace=wrap;html=1;align=center;fontFamily=Noto Sans;fontSource=https%3A%2F%2Ffonts.googleapis.com%2Fcss%3Ffamily%3DNoto%2BSans;" parent="1" vertex="1">
          <mxGeometry x="800" y="210" width="100" height="40" as="geometry" />
        </mxCell>
        <mxCell id="9sAcsaAmfvEGhJB_O84w-20" value="&lt;font data-font-src=&quot;https://fonts.googleapis.com/css?family=Noto+Sans&quot; face=&quot;Noto Sans&quot;&gt;product_id&lt;/font&gt;" style="ellipse;whiteSpace=wrap;html=1;align=center;fontStyle=4;" parent="1" vertex="1">
          <mxGeometry x="660" y="150" width="100" height="40" as="geometry" />
        </mxCell>
        <mxCell id="9sAcsaAmfvEGhJB_O84w-21" value="&lt;font face=&quot;Noto Sans&quot;&gt;product_description&lt;/font&gt;" style="ellipse;whiteSpace=wrap;html=1;align=center;" parent="1" vertex="1">
          <mxGeometry x="690" y="70" width="140" height="60" as="geometry" />
        </mxCell>
        <mxCell id="9sAcsaAmfvEGhJB_O84w-22" value="&lt;font face=&quot;Noto Sans&quot;&gt;product_name&lt;/font&gt;" style="ellipse;whiteSpace=wrap;html=1;align=center;" parent="1" vertex="1">
          <mxGeometry x="870" y="60" width="100" height="40" as="geometry" />
        </mxCell>
        <mxCell id="9sAcsaAmfvEGhJB_O84w-23" value="&lt;font face=&quot;Noto Sans&quot;&gt;product_brand&lt;/font&gt;" style="ellipse;whiteSpace=wrap;html=1;align=center;" parent="1" vertex="1">
          <mxGeometry x="990" y="70" width="100" height="40" as="geometry" />
        </mxCell>
        <mxCell id="9sAcsaAmfvEGhJB_O84w-24" value="&lt;font face=&quot;Noto Sans&quot;&gt;price&lt;/font&gt;" style="ellipse;whiteSpace=wrap;html=1;align=center;" parent="1" vertex="1">
          <mxGeometry x="990" y="130" width="100" height="40" as="geometry" />
        </mxCell>
        <mxCell id="9sAcsaAmfvEGhJB_O84w-25" value="&lt;font face=&quot;Noto Sans&quot;&gt;first_image, second_image,&lt;br&gt;third image&lt;br&gt;&lt;/font&gt;" style="ellipse;whiteSpace=wrap;html=1;align=center;" parent="1" vertex="1">
          <mxGeometry x="940" y="330" width="130" height="70" as="geometry" />
        </mxCell>
        <mxCell id="9sAcsaAmfvEGhJB_O84w-26" value="&lt;font face=&quot;Noto Sans&quot;&gt;posted_date&lt;/font&gt;" style="ellipse;whiteSpace=wrap;html=1;align=center;" parent="1" vertex="1">
          <mxGeometry x="800" y="390" width="100" height="40" as="geometry" />
        </mxCell>
        <mxCell id="9sAcsaAmfvEGhJB_O84w-29" value="&lt;span style=&quot;border-bottom: 1px dotted&quot;&gt;&lt;font data-font-src=&quot;https://fonts.googleapis.com/css?family=Noto+Sans&quot; face=&quot;Noto Sans&quot;&gt;category_id&lt;/font&gt;&lt;/span&gt;" style="ellipse;whiteSpace=wrap;html=1;align=center;" parent="1" vertex="1">
          <mxGeometry x="690" y="350" width="100" height="40" as="geometry" />
        </mxCell>
        <mxCell id="9sAcsaAmfvEGhJB_O84w-33" value="&lt;span style=&quot;border-bottom: 1px dotted&quot;&gt;&lt;font data-font-src=&quot;https://fonts.googleapis.com/css?family=Noto+Sans&quot; face=&quot;Noto Sans&quot;&gt;user_id&lt;/font&gt;&lt;/span&gt;" style="ellipse;whiteSpace=wrap;html=1;align=center;" parent="1" vertex="1">
          <mxGeometry x="649.5" y="280" width="100" height="40" as="geometry" />
        </mxCell>
        <mxCell id="9sAcsaAmfvEGhJB_O84w-35" value="" style="line;strokeWidth=1;rotatable=0;dashed=0;labelPosition=right;align=left;verticalAlign=middle;spacingTop=0;spacingLeft=6;points=[];portConstraint=eastwest;" parent="1" vertex="1">
          <mxGeometry x="250" y="225" width="230" height="10" as="geometry" />
        </mxCell>
        <mxCell id="9sAcsaAmfvEGhJB_O84w-36" value="" style="line;strokeWidth=1;rotatable=0;dashed=0;labelPosition=right;align=left;verticalAlign=middle;spacingTop=0;spacingLeft=6;points=[];portConstraint=eastwest;" parent="1" vertex="1">
          <mxGeometry x="599" y="225" width="201" height="10" as="geometry" />
        </mxCell>
        <mxCell id="9sAcsaAmfvEGhJB_O84w-37" value="1" style="text;strokeColor=none;fillColor=none;spacingLeft=4;spacingRight=4;overflow=hidden;rotatable=0;points=[[0,0.5],[1,0.5]];portConstraint=eastwest;fontSize=12;whiteSpace=wrap;html=1;fontFamily=Noto Sans;fontSource=https%3A%2F%2Ffonts.googleapis.com%2Fcss%3Ffamily%3DNoto%2BSans;" parent="1" vertex="1">
          <mxGeometry x="250" y="205" width="40" height="30" as="geometry" />
        </mxCell>
        <mxCell id="9sAcsaAmfvEGhJB_O84w-38" value="*" style="text;strokeColor=none;fillColor=none;spacingLeft=4;spacingRight=4;overflow=hidden;rotatable=0;points=[[0,0.5],[1,0.5]];portConstraint=eastwest;fontSize=12;whiteSpace=wrap;html=1;fontFamily=Noto Sans;fontSource=https%3A%2F%2Ffonts.googleapis.com%2Fcss%3Ffamily%3DNoto%2BSans;" parent="1" vertex="1">
          <mxGeometry x="780" y="205" width="40" height="30" as="geometry" />
        </mxCell>
        <mxCell id="9sAcsaAmfvEGhJB_O84w-39" value="1" style="text;strokeColor=none;fillColor=none;spacingLeft=4;spacingRight=4;overflow=hidden;rotatable=0;points=[[0,0.5],[1,0.5]];portConstraint=eastwest;fontSize=12;whiteSpace=wrap;html=1;fontFamily=Noto Sans;fontSource=https%3A%2F%2Ffonts.googleapis.com%2Fcss%3Ffamily%3DNoto%2BSans;" parent="1" vertex="1">
          <mxGeometry x="780" y="230" width="40" height="30" as="geometry" />
        </mxCell>
        <mxCell id="9sAcsaAmfvEGhJB_O84w-40" value="1" style="text;strokeColor=none;fillColor=none;spacingLeft=4;spacingRight=4;overflow=hidden;rotatable=0;points=[[0,0.5],[1,0.5]];portConstraint=eastwest;fontSize=12;whiteSpace=wrap;html=1;fontFamily=Noto Sans;fontSource=https%3A%2F%2Ffonts.googleapis.com%2Fcss%3Ffamily%3DNoto%2BSans;" parent="1" vertex="1">
          <mxGeometry x="250" y="230" width="40" height="30" as="geometry" />
        </mxCell>
        <mxCell id="9sAcsaAmfvEGhJB_O84w-41" value="category" style="rounded=1;arcSize=10;whiteSpace=wrap;html=1;align=center;fontFamily=Noto Sans;fontSource=https%3A%2F%2Ffonts.googleapis.com%2Fcss%3Ffamily%3DNoto%2BSans;" parent="1" vertex="1">
          <mxGeometry x="1090" y="470" width="100" height="40" as="geometry" />
        </mxCell>
        <mxCell id="9sAcsaAmfvEGhJB_O84w-42" value="&lt;font data-font-src=&quot;https://fonts.googleapis.com/css?family=Noto+Sans&quot; face=&quot;Noto Sans&quot;&gt;category_id&lt;/font&gt;" style="ellipse;whiteSpace=wrap;html=1;align=center;fontStyle=4;" parent="1" vertex="1">
          <mxGeometry x="1240" y="510" width="100" height="40" as="geometry" />
        </mxCell>
        <mxCell id="9sAcsaAmfvEGhJB_O84w-43" value="&lt;font face=&quot;Noto Sans&quot;&gt;category_name&lt;/font&gt;" style="ellipse;whiteSpace=wrap;html=1;align=center;" parent="1" vertex="1">
          <mxGeometry x="1085" y="570" width="110" height="50" as="geometry" />
        </mxCell>
        <mxCell id="9sAcsaAmfvEGhJB_O84w-44" value="&lt;font data-font-src=&quot;https://fonts.googleapis.com/css?family=Noto+Sans&quot; face=&quot;Noto Sans&quot;&gt;Has&lt;/font&gt;" style="shape=rhombus;perimeter=rhombusPerimeter;whiteSpace=wrap;html=1;align=center;" parent="1" vertex="1">
          <mxGeometry x="1080" y="200" width="120" height="60" as="geometry" />
        </mxCell>
        <mxCell id="9sAcsaAmfvEGhJB_O84w-45" value="" style="endArrow=none;html=1;rounded=0;entryX=0.5;entryY=0;entryDx=0;entryDy=0;exitX=0.5;exitY=1;exitDx=0;exitDy=0;" parent="1" source="9sAcsaAmfvEGhJB_O84w-44" target="9sAcsaAmfvEGhJB_O84w-41" edge="1">
          <mxGeometry relative="1" as="geometry">
            <mxPoint x="1050" y="310" as="sourcePoint" />
            <mxPoint x="1210" y="310" as="targetPoint" />
          </mxGeometry>
        </mxCell>
        <mxCell id="9sAcsaAmfvEGhJB_O84w-46" value="" style="endArrow=none;html=1;rounded=0;entryX=0;entryY=0.5;entryDx=0;entryDy=0;exitX=1;exitY=0.5;exitDx=0;exitDy=0;" parent="1" source="9sAcsaAmfvEGhJB_O84w-18" target="9sAcsaAmfvEGhJB_O84w-44" edge="1">
          <mxGeometry relative="1" as="geometry">
            <mxPoint x="919.66" y="225" as="sourcePoint" />
            <mxPoint x="919.66" y="435" as="targetPoint" />
          </mxGeometry>
        </mxCell>
        <mxCell id="9sAcsaAmfvEGhJB_O84w-47" value="1" style="text;strokeColor=none;fillColor=none;spacingLeft=4;spacingRight=4;overflow=hidden;rotatable=0;points=[[0,0.5],[1,0.5]];portConstraint=eastwest;fontSize=12;whiteSpace=wrap;html=1;fontFamily=Noto Sans;fontSource=https%3A%2F%2Ffonts.googleapis.com%2Fcss%3Ffamily%3DNoto%2BSans;" parent="1" vertex="1">
          <mxGeometry x="1140" y="440" width="40" height="30" as="geometry" />
        </mxCell>
        <mxCell id="9sAcsaAmfvEGhJB_O84w-48" value="*" style="text;strokeColor=none;fillColor=none;spacingLeft=4;spacingRight=4;overflow=hidden;rotatable=0;points=[[0,0.5],[1,0.5]];portConstraint=eastwest;fontSize=12;whiteSpace=wrap;html=1;fontFamily=Noto Sans;fontSource=https%3A%2F%2Ffonts.googleapis.com%2Fcss%3Ffamily%3DNoto%2BSans;" parent="1" vertex="1">
          <mxGeometry x="900" y="205" width="40" height="30" as="geometry" />
        </mxCell>
        <mxCell id="9sAcsaAmfvEGhJB_O84w-49" value="1" style="text;strokeColor=none;fillColor=none;spacingLeft=4;spacingRight=4;overflow=hidden;rotatable=0;points=[[0,0.5],[1,0.5]];portConstraint=eastwest;fontSize=12;whiteSpace=wrap;html=1;fontFamily=Noto Sans;fontSource=https%3A%2F%2Ffonts.googleapis.com%2Fcss%3Ffamily%3DNoto%2BSans;" parent="1" vertex="1">
          <mxGeometry x="900" y="230" width="40" height="30" as="geometry" />
        </mxCell>
        <mxCell id="9sAcsaAmfvEGhJB_O84w-50" value="1" style="text;strokeColor=none;fillColor=none;spacingLeft=4;spacingRight=4;overflow=hidden;rotatable=0;points=[[0,0.5],[1,0.5]];portConstraint=eastwest;fontSize=12;whiteSpace=wrap;html=1;fontFamily=Noto Sans;fontSource=https%3A%2F%2Ffonts.googleapis.com%2Fcss%3Ffamily%3DNoto%2BSans;" parent="1" vertex="1">
          <mxGeometry x="1120" y="440" width="20" height="30" as="geometry" />
        </mxCell>
        <mxCell id="9sAcsaAmfvEGhJB_O84w-52" value="city" style="rounded=1;arcSize=10;whiteSpace=wrap;html=1;align=center;fontFamily=Noto Sans;fontSource=https%3A%2F%2Ffonts.googleapis.com%2Fcss%3Ffamily%3DNoto%2BSans;" parent="1" vertex="1">
          <mxGeometry x="-170" y="400" width="100" height="40" as="geometry" />
        </mxCell>
        <mxCell id="9sAcsaAmfvEGhJB_O84w-53" value="&lt;font data-font-src=&quot;https://fonts.googleapis.com/css?family=Noto+Sans&quot; face=&quot;Noto Sans&quot;&gt;city_id&lt;/font&gt;" style="ellipse;whiteSpace=wrap;html=1;align=center;fontStyle=4;" parent="1" vertex="1">
          <mxGeometry x="-310" y="400" width="100" height="40" as="geometry" />
        </mxCell>
        <mxCell id="9sAcsaAmfvEGhJB_O84w-57" value="&lt;font data-font-src=&quot;https://fonts.googleapis.com/css?family=Noto+Sans&quot; face=&quot;Noto Sans&quot;&gt;city_name&lt;/font&gt;" style="ellipse;whiteSpace=wrap;html=1;align=center;" parent="1" vertex="1">
          <mxGeometry x="-170" y="480" width="100" height="40" as="geometry" />
        </mxCell>
        <mxCell id="9sAcsaAmfvEGhJB_O84w-58" value="&lt;font data-font-src=&quot;https://fonts.googleapis.com/css?family=Noto+Sans&quot; face=&quot;Noto Sans&quot;&gt;Has a&lt;/font&gt;" style="shape=rhombus;perimeter=rhombusPerimeter;whiteSpace=wrap;html=1;align=center;" parent="1" vertex="1">
          <mxGeometry x="-180" y="200" width="120" height="60" as="geometry" />
        </mxCell>
        <mxCell id="9sAcsaAmfvEGhJB_O84w-60" value="" style="endArrow=none;html=1;rounded=0;exitX=0.5;exitY=1;exitDx=0;exitDy=0;" parent="1" source="9sAcsaAmfvEGhJB_O84w-58" edge="1">
          <mxGeometry relative="1" as="geometry">
            <mxPoint x="-120" y="275" as="sourcePoint" />
            <mxPoint x="-120" y="400" as="targetPoint" />
          </mxGeometry>
        </mxCell>
        <mxCell id="9sAcsaAmfvEGhJB_O84w-62" value="" style="line;strokeWidth=1;rotatable=0;dashed=0;labelPosition=right;align=left;verticalAlign=middle;spacingTop=0;spacingLeft=6;points=[];portConstraint=eastwest;" parent="1" vertex="1">
          <mxGeometry x="-60" y="225" width="210" height="10" as="geometry" />
        </mxCell>
        <mxCell id="9sAcsaAmfvEGhJB_O84w-63" value="1" style="text;strokeColor=none;fillColor=none;spacingLeft=4;spacingRight=4;overflow=hidden;rotatable=0;points=[[0,0.5],[1,0.5]];portConstraint=eastwest;fontSize=12;whiteSpace=wrap;html=1;fontFamily=Noto Sans;fontSource=https%3A%2F%2Ffonts.googleapis.com%2Fcss%3Ffamily%3DNoto%2BSans;" parent="1" vertex="1">
          <mxGeometry x="-120" y="370" width="40" height="30" as="geometry" />
        </mxCell>
        <mxCell id="9sAcsaAmfvEGhJB_O84w-64" value="*" style="text;strokeColor=none;fillColor=none;spacingLeft=4;spacingRight=4;overflow=hidden;rotatable=0;points=[[0,0.5],[1,0.5]];portConstraint=eastwest;fontSize=12;whiteSpace=wrap;html=1;fontFamily=Noto Sans;fontSource=https%3A%2F%2Ffonts.googleapis.com%2Fcss%3Ffamily%3DNoto%2BSans;" parent="1" vertex="1">
          <mxGeometry x="130" y="230" width="40" height="30" as="geometry" />
        </mxCell>
        <mxCell id="9sAcsaAmfvEGhJB_O84w-65" value="1" style="text;strokeColor=none;fillColor=none;spacingLeft=4;spacingRight=4;overflow=hidden;rotatable=0;points=[[0,0.5],[1,0.5]];portConstraint=eastwest;fontSize=12;whiteSpace=wrap;html=1;fontFamily=Noto Sans;fontSource=https%3A%2F%2Ffonts.googleapis.com%2Fcss%3Ffamily%3DNoto%2BSans;" parent="1" vertex="1">
          <mxGeometry x="-140" y="370" width="40" height="30" as="geometry" />
        </mxCell>
        <mxCell id="9sAcsaAmfvEGhJB_O84w-66" value="1" style="text;strokeColor=none;fillColor=none;spacingLeft=4;spacingRight=4;overflow=hidden;rotatable=0;points=[[0,0.5],[1,0.5]];portConstraint=eastwest;fontSize=12;whiteSpace=wrap;html=1;fontFamily=Noto Sans;fontSource=https%3A%2F%2Ffonts.googleapis.com%2Fcss%3Ffamily%3DNoto%2BSans;" parent="1" vertex="1">
          <mxGeometry x="130" y="205" width="40" height="30" as="geometry" />
        </mxCell>
        <mxCell id="9sAcsaAmfvEGhJB_O84w-67" value="wishlist" style="rounded=1;arcSize=10;whiteSpace=wrap;html=1;align=center;fontFamily=Noto Sans;fontSource=https%3A%2F%2Ffonts.googleapis.com%2Fcss%3Ffamily%3DNoto%2BSans;" parent="1" vertex="1">
          <mxGeometry x="490" y="-10" width="100" height="40" as="geometry" />
        </mxCell>
        <mxCell id="9sAcsaAmfvEGhJB_O84w-68" value="&lt;font data-font-src=&quot;https://fonts.googleapis.com/css?family=Noto+Sans&quot; face=&quot;Noto Sans&quot;&gt;Has a&lt;/font&gt;" style="shape=rhombus;perimeter=rhombusPerimeter;whiteSpace=wrap;html=1;align=center;" parent="1" vertex="1">
          <mxGeometry x="180" y="-20" width="120" height="60" as="geometry" />
        </mxCell>
        <mxCell id="9sAcsaAmfvEGhJB_O84w-69" value="" style="endArrow=none;html=1;rounded=0;exitX=0.5;exitY=1;exitDx=0;exitDy=0;entryX=0.897;entryY=0;entryDx=0;entryDy=0;entryPerimeter=0;" parent="1" target="9sAcsaAmfvEGhJB_O84w-1" edge="1">
          <mxGeometry relative="1" as="geometry">
            <mxPoint x="239.57999999999998" y="40" as="sourcePoint" />
            <mxPoint x="239.57999999999998" y="180" as="targetPoint" />
          </mxGeometry>
        </mxCell>
        <mxCell id="9sAcsaAmfvEGhJB_O84w-70" value="" style="line;strokeWidth=1;rotatable=0;dashed=0;labelPosition=right;align=left;verticalAlign=middle;spacingTop=0;spacingLeft=6;points=[];portConstraint=eastwest;" parent="1" vertex="1">
          <mxGeometry x="300" y="5" width="190" height="10" as="geometry" />
        </mxCell>
        <mxCell id="9sAcsaAmfvEGhJB_O84w-72" value="&lt;font face=&quot;Noto Sans&quot;&gt;product_id&lt;/font&gt;" style="ellipse;whiteSpace=wrap;html=1;align=center;" parent="1" vertex="1">
          <mxGeometry x="599" y="-70" width="100" height="40" as="geometry" />
        </mxCell>
        <mxCell id="9sAcsaAmfvEGhJB_O84w-73" value="&lt;font face=&quot;Noto Sans&quot;&gt;user_id&lt;/font&gt;" style="ellipse;whiteSpace=wrap;html=1;align=center;" parent="1" vertex="1">
          <mxGeometry x="450" y="-100" width="100" height="40" as="geometry" />
        </mxCell>
        <mxCell id="9sAcsaAmfvEGhJB_O84w-74" value="1" style="text;strokeColor=none;fillColor=none;spacingLeft=4;spacingRight=4;overflow=hidden;rotatable=0;points=[[0,0.5],[1,0.5]];portConstraint=eastwest;fontSize=12;whiteSpace=wrap;html=1;fontFamily=Noto Sans;fontSource=https%3A%2F%2Ffonts.googleapis.com%2Fcss%3Ffamily%3DNoto%2BSans;" parent="1" vertex="1">
          <mxGeometry x="470" y="5" width="40" height="30" as="geometry" />
        </mxCell>
        <mxCell id="9sAcsaAmfvEGhJB_O84w-75" value="1" style="text;strokeColor=none;fillColor=none;spacingLeft=4;spacingRight=4;overflow=hidden;rotatable=0;points=[[0,0.5],[1,0.5]];portConstraint=eastwest;fontSize=12;whiteSpace=wrap;html=1;fontFamily=Noto Sans;fontSource=https%3A%2F%2Ffonts.googleapis.com%2Fcss%3Ffamily%3DNoto%2BSans;" parent="1" vertex="1">
          <mxGeometry x="240" y="180" width="40" height="30" as="geometry" />
        </mxCell>
        <mxCell id="9sAcsaAmfvEGhJB_O84w-76" value="1" style="text;strokeColor=none;fillColor=none;spacingLeft=4;spacingRight=4;overflow=hidden;rotatable=0;points=[[0,0.5],[1,0.5]];portConstraint=eastwest;fontSize=12;whiteSpace=wrap;html=1;fontFamily=Noto Sans;fontSource=https%3A%2F%2Ffonts.googleapis.com%2Fcss%3Ffamily%3DNoto%2BSans;" parent="1" vertex="1">
          <mxGeometry x="220" y="180" width="40" height="30" as="geometry" />
        </mxCell>
        <mxCell id="9sAcsaAmfvEGhJB_O84w-77" value="1" style="text;strokeColor=none;fillColor=none;spacingLeft=4;spacingRight=4;overflow=hidden;rotatable=0;points=[[0,0.5],[1,0.5]];portConstraint=eastwest;fontSize=12;whiteSpace=wrap;html=1;fontFamily=Noto Sans;fontSource=https%3A%2F%2Ffonts.googleapis.com%2Fcss%3Ffamily%3DNoto%2BSans;" parent="1" vertex="1">
          <mxGeometry x="470" y="-20" width="40" height="30" as="geometry" />
        </mxCell>
        <mxCell id="9sAcsaAmfvEGhJB_O84w-79" value="&lt;font data-font-src=&quot;https://fonts.googleapis.com/css?family=Noto+Sans&quot; face=&quot;Noto Sans&quot;&gt;can have&lt;/font&gt;" style="shape=rhombus;perimeter=rhombusPerimeter;whiteSpace=wrap;html=1;align=center;" parent="1" vertex="1">
          <mxGeometry x="790" y="-20" width="120" height="60" as="geometry" />
        </mxCell>
        <mxCell id="9sAcsaAmfvEGhJB_O84w-80" value="" style="line;strokeWidth=1;rotatable=0;dashed=0;labelPosition=right;align=left;verticalAlign=middle;spacingTop=0;spacingLeft=6;points=[];portConstraint=eastwest;" parent="1" vertex="1">
          <mxGeometry x="589" y="5" width="201" height="10" as="geometry" />
        </mxCell>
        <mxCell id="9sAcsaAmfvEGhJB_O84w-81" value="" style="endArrow=none;html=1;rounded=0;exitX=0.5;exitY=1;exitDx=0;exitDy=0;" parent="1" target="9sAcsaAmfvEGhJB_O84w-18" edge="1">
          <mxGeometry relative="1" as="geometry">
            <mxPoint x="850" y="40" as="sourcePoint" />
            <mxPoint x="850" y="250" as="targetPoint" />
          </mxGeometry>
        </mxCell>
        <mxCell id="9sAcsaAmfvEGhJB_O84w-82" value="1" style="text;strokeColor=none;fillColor=none;spacingLeft=4;spacingRight=4;overflow=hidden;rotatable=0;points=[[0,0.5],[1,0.5]];portConstraint=eastwest;fontSize=12;whiteSpace=wrap;html=1;fontFamily=Noto Sans;fontSource=https%3A%2F%2Ffonts.googleapis.com%2Fcss%3Ffamily%3DNoto%2BSans;" parent="1" vertex="1">
          <mxGeometry x="590" y="5" width="40" height="30" as="geometry" />
        </mxCell>
        <mxCell id="9sAcsaAmfvEGhJB_O84w-83" value="*" style="text;strokeColor=none;fillColor=none;spacingLeft=4;spacingRight=4;overflow=hidden;rotatable=0;points=[[0,0.5],[1,0.5]];portConstraint=eastwest;fontSize=12;whiteSpace=wrap;html=1;fontFamily=Noto Sans;fontSource=https%3A%2F%2Ffonts.googleapis.com%2Fcss%3Ffamily%3DNoto%2BSans;" parent="1" vertex="1">
          <mxGeometry x="830" y="180" width="20" height="30" as="geometry" />
        </mxCell>
        <mxCell id="9sAcsaAmfvEGhJB_O84w-85" value="1" style="text;strokeColor=none;fillColor=none;spacingLeft=4;spacingRight=4;overflow=hidden;rotatable=0;points=[[0,0.5],[1,0.5]];portConstraint=eastwest;fontSize=12;whiteSpace=wrap;html=1;fontFamily=Noto Sans;fontSource=https%3A%2F%2Ffonts.googleapis.com%2Fcss%3Ffamily%3DNoto%2BSans;" parent="1" vertex="1">
          <mxGeometry x="850" y="180" width="40" height="30" as="geometry" />
        </mxCell>
        <mxCell id="9sAcsaAmfvEGhJB_O84w-86" value="*" style="text;strokeColor=none;fillColor=none;spacingLeft=4;spacingRight=4;overflow=hidden;rotatable=0;points=[[0,0.5],[1,0.5]];portConstraint=eastwest;fontSize=12;whiteSpace=wrap;html=1;fontFamily=Noto Sans;fontSource=https%3A%2F%2Ffonts.googleapis.com%2Fcss%3Ffamily%3DNoto%2BSans;" parent="1" vertex="1">
          <mxGeometry x="589" y="-15" width="40" height="30" as="geometry" />
        </mxCell>
        <mxCell id="9sAcsaAmfvEGhJB_O84w-87" value="transaction" style="rounded=1;arcSize=10;whiteSpace=wrap;html=1;align=center;fontFamily=Noto Sans;fontSource=https%3A%2F%2Ffonts.googleapis.com%2Fcss%3Ffamily%3DNoto%2BSans;" parent="1" vertex="1">
          <mxGeometry x="150" y="490" width="100" height="40" as="geometry" />
        </mxCell>
        <mxCell id="9sAcsaAmfvEGhJB_O84w-90" value="&lt;font face=&quot;Noto Sans&quot;&gt;user_product_id&lt;/font&gt;" style="ellipse;whiteSpace=wrap;html=1;align=center;" parent="1" vertex="1">
          <mxGeometry x="5" y="580" width="110" height="70" as="geometry" />
        </mxCell>
        <mxCell id="9sAcsaAmfvEGhJB_O84w-91" value="&lt;font face=&quot;Noto Sans&quot;&gt;user_id&lt;/font&gt;" style="ellipse;whiteSpace=wrap;html=1;align=center;" parent="1" vertex="1">
          <mxGeometry x="-35" y="505" width="90" height="50" as="geometry" />
        </mxCell>
        <mxCell id="9sAcsaAmfvEGhJB_O84w-92" value="&lt;font face=&quot;Noto Sans&quot;&gt;owner_id&lt;/font&gt;" style="ellipse;whiteSpace=wrap;html=1;align=center;" parent="1" vertex="1">
          <mxGeometry x="130" y="630" width="90" height="50" as="geometry" />
        </mxCell>
        <mxCell id="9sAcsaAmfvEGhJB_O84w-93" value="&lt;font face=&quot;Noto Sans&quot;&gt;owner_product_id&lt;/font&gt;" style="ellipse;whiteSpace=wrap;html=1;align=center;" parent="1" vertex="1">
          <mxGeometry x="250" y="570" width="110" height="60" as="geometry" />
        </mxCell>
        <mxCell id="9sAcsaAmfvEGhJB_O84w-96" value="&lt;font face=&quot;Noto Sans&quot;&gt;status&lt;/font&gt;" style="ellipse;whiteSpace=wrap;html=1;align=center;" parent="1" vertex="1">
          <mxGeometry x="5" y="420" width="90" height="50" as="geometry" />
        </mxCell>
        <mxCell id="9sAcsaAmfvEGhJB_O84w-104" value="&lt;font data-font-src=&quot;https://fonts.googleapis.com/css?family=Noto+Sans&quot; face=&quot;Noto Sans&quot;&gt;Has a&lt;/font&gt;" style="shape=rhombus;perimeter=rhombusPerimeter;whiteSpace=wrap;html=1;align=center;" parent="1" vertex="1">
          <mxGeometry x="140" y="340" width="120" height="60" as="geometry" />
        </mxCell>
        <mxCell id="9sAcsaAmfvEGhJB_O84w-105" value="" style="endArrow=none;html=1;rounded=0;exitX=0.5;exitY=1;exitDx=0;exitDy=0;" parent="1" edge="1">
          <mxGeometry relative="1" as="geometry">
            <mxPoint x="199.70999999999998" y="250" as="sourcePoint" />
            <mxPoint x="200" y="340" as="targetPoint" />
          </mxGeometry>
        </mxCell>
        <mxCell id="9sAcsaAmfvEGhJB_O84w-106" value="" style="endArrow=none;html=1;rounded=0;exitX=0.5;exitY=1;exitDx=0;exitDy=0;" parent="1" edge="1">
          <mxGeometry relative="1" as="geometry">
            <mxPoint x="199.70999999999998" y="400" as="sourcePoint" />
            <mxPoint x="200" y="490" as="targetPoint" />
          </mxGeometry>
        </mxCell>
        <mxCell id="9sAcsaAmfvEGhJB_O84w-107" value="1" style="text;strokeColor=none;fillColor=none;spacingLeft=4;spacingRight=4;overflow=hidden;rotatable=0;points=[[0,0.5],[1,0.5]];portConstraint=eastwest;fontSize=12;whiteSpace=wrap;html=1;fontFamily=Noto Sans;fontSource=https%3A%2F%2Ffonts.googleapis.com%2Fcss%3Ffamily%3DNoto%2BSans;" parent="1" vertex="1">
          <mxGeometry x="200" y="460" width="40" height="30" as="geometry" />
        </mxCell>
        <mxCell id="9sAcsaAmfvEGhJB_O84w-108" value="*" style="text;strokeColor=none;fillColor=none;spacingLeft=4;spacingRight=4;overflow=hidden;rotatable=0;points=[[0,0.5],[1,0.5]];portConstraint=eastwest;fontSize=12;whiteSpace=wrap;html=1;fontFamily=Noto Sans;fontSource=https%3A%2F%2Ffonts.googleapis.com%2Fcss%3Ffamily%3DNoto%2BSans;" parent="1" vertex="1">
          <mxGeometry x="200" y="250" width="40" height="30" as="geometry" />
        </mxCell>
        <mxCell id="9sAcsaAmfvEGhJB_O84w-109" value="*" style="text;strokeColor=none;fillColor=none;spacingLeft=4;spacingRight=4;overflow=hidden;rotatable=0;points=[[0,0.5],[1,0.5]];portConstraint=eastwest;fontSize=12;whiteSpace=wrap;html=1;fontFamily=Noto Sans;fontSource=https%3A%2F%2Ffonts.googleapis.com%2Fcss%3Ffamily%3DNoto%2BSans;" parent="1" vertex="1">
          <mxGeometry x="180" y="460" width="20" height="30" as="geometry" />
        </mxCell>
        <mxCell id="9sAcsaAmfvEGhJB_O84w-111" value="1" style="text;strokeColor=none;fillColor=none;spacingLeft=4;spacingRight=4;overflow=hidden;rotatable=0;points=[[0,0.5],[1,0.5]];portConstraint=eastwest;fontSize=12;whiteSpace=wrap;html=1;fontFamily=Noto Sans;fontSource=https%3A%2F%2Ffonts.googleapis.com%2Fcss%3Ffamily%3DNoto%2BSans;" parent="1" vertex="1">
          <mxGeometry x="180" y="250" width="40" height="30" as="geometry" />
        </mxCell>
        <mxCell id="9sAcsaAmfvEGhJB_O84w-113" value="transaction_history" style="rounded=1;arcSize=10;whiteSpace=wrap;html=1;align=center;fontFamily=Noto Sans;fontSource=https%3A%2F%2Ffonts.googleapis.com%2Fcss%3Ffamily%3DNoto%2BSans;" parent="1" vertex="1">
          <mxGeometry x="565" y="490" width="127.5" height="40" as="geometry" />
        </mxCell>
        <mxCell id="9sAcsaAmfvEGhJB_O84w-114" value="&lt;font face=&quot;Noto Sans&quot;&gt;user_product_id&lt;/font&gt;" style="ellipse;whiteSpace=wrap;html=1;align=center;" parent="1" vertex="1">
          <mxGeometry x="550" y="640" width="110" height="70" as="geometry" />
        </mxCell>
        <mxCell id="9sAcsaAmfvEGhJB_O84w-115" value="&lt;font face=&quot;Noto Sans&quot;&gt;user_id&lt;/font&gt;" style="ellipse;whiteSpace=wrap;html=1;align=center;" parent="1" vertex="1">
          <mxGeometry x="450" y="590" width="90" height="50" as="geometry" />
        </mxCell>
        <mxCell id="9sAcsaAmfvEGhJB_O84w-116" value="&lt;font face=&quot;Noto Sans&quot;&gt;owner_id&lt;/font&gt;" style="ellipse;whiteSpace=wrap;html=1;align=center;" parent="1" vertex="1">
          <mxGeometry x="680" y="620" width="90" height="50" as="geometry" />
        </mxCell>
        <mxCell id="9sAcsaAmfvEGhJB_O84w-117" value="&lt;font face=&quot;Noto Sans&quot;&gt;owner_product_id&lt;/font&gt;" style="ellipse;whiteSpace=wrap;html=1;align=center;" parent="1" vertex="1">
          <mxGeometry x="700" y="530" width="110" height="60" as="geometry" />
        </mxCell>
        <mxCell id="9sAcsaAmfvEGhJB_O84w-121" value="&lt;font data-font-src=&quot;https://fonts.googleapis.com/css?family=Noto+Sans&quot; face=&quot;Noto Sans&quot;&gt;may have&lt;/font&gt;" style="shape=rhombus;perimeter=rhombusPerimeter;whiteSpace=wrap;html=1;align=center;" parent="1" vertex="1">
          <mxGeometry x="340" y="480" width="120" height="60" as="geometry" />
        </mxCell>
        <mxCell id="9sAcsaAmfvEGhJB_O84w-122" value="" style="line;strokeWidth=1;rotatable=0;dashed=0;labelPosition=right;align=left;verticalAlign=middle;spacingTop=0;spacingLeft=6;points=[];portConstraint=eastwest;" parent="1" vertex="1">
          <mxGeometry x="250" y="505" width="90" height="10" as="geometry" />
        </mxCell>
        <mxCell id="9sAcsaAmfvEGhJB_O84w-123" value="" style="line;strokeWidth=1;rotatable=0;dashed=0;labelPosition=right;align=left;verticalAlign=middle;spacingTop=0;spacingLeft=6;points=[];portConstraint=eastwest;" parent="1" vertex="1">
          <mxGeometry x="460" y="505" width="110" height="10" as="geometry" />
        </mxCell>
        <mxCell id="9sAcsaAmfvEGhJB_O84w-124" value="1" style="text;strokeColor=none;fillColor=none;spacingLeft=4;spacingRight=4;overflow=hidden;rotatable=0;points=[[0,0.5],[1,0.5]];portConstraint=eastwest;fontSize=12;whiteSpace=wrap;html=1;fontFamily=Noto Sans;fontSource=https%3A%2F%2Ffonts.googleapis.com%2Fcss%3Ffamily%3DNoto%2BSans;" parent="1" vertex="1">
          <mxGeometry x="250" y="485" width="40" height="30" as="geometry" />
        </mxCell>
        <mxCell id="9sAcsaAmfvEGhJB_O84w-125" value="1" style="text;strokeColor=none;fillColor=none;spacingLeft=4;spacingRight=4;overflow=hidden;rotatable=0;points=[[0,0.5],[1,0.5]];portConstraint=eastwest;fontSize=12;whiteSpace=wrap;html=1;fontFamily=Noto Sans;fontSource=https%3A%2F%2Ffonts.googleapis.com%2Fcss%3Ffamily%3DNoto%2BSans;" parent="1" vertex="1">
          <mxGeometry x="549" y="485" width="40" height="30" as="geometry" />
        </mxCell>
        <mxCell id="9sAcsaAmfvEGhJB_O84w-128" value="" style="endArrow=none;html=1;rounded=0;entryX=1;entryY=0.5;entryDx=0;entryDy=0;exitX=0;exitY=0.5;exitDx=0;exitDy=0;" parent="1" source="9sAcsaAmfvEGhJB_O84w-87" target="9sAcsaAmfvEGhJB_O84w-91" edge="1">
          <mxGeometry relative="1" as="geometry">
            <mxPoint x="190" y="440" as="sourcePoint" />
            <mxPoint x="120" y="545" as="targetPoint" />
          </mxGeometry>
        </mxCell>
        <mxCell id="9sAcsaAmfvEGhJB_O84w-129" value="" style="endArrow=none;html=1;rounded=0;entryX=1;entryY=0.5;entryDx=0;entryDy=0;exitX=0;exitY=0.5;exitDx=0;exitDy=0;" parent="1" source="9sAcsaAmfvEGhJB_O84w-87" edge="1">
          <mxGeometry relative="1" as="geometry">
            <mxPoint x="190" y="430" as="sourcePoint" />
            <mxPoint x="95" y="450" as="targetPoint" />
          </mxGeometry>
        </mxCell>
        <mxCell id="9sAcsaAmfvEGhJB_O84w-130" value="" style="endArrow=none;html=1;rounded=0;entryX=1;entryY=0.5;entryDx=0;entryDy=0;exitX=0.5;exitY=1;exitDx=0;exitDy=0;" parent="1" source="9sAcsaAmfvEGhJB_O84w-87" edge="1">
          <mxGeometry relative="1" as="geometry">
            <mxPoint x="195" y="570" as="sourcePoint" />
            <mxPoint x="100" y="590" as="targetPoint" />
          </mxGeometry>
        </mxCell>
        <mxCell id="9sAcsaAmfvEGhJB_O84w-131" value="" style="endArrow=none;html=1;rounded=0;entryX=0.5;entryY=0;entryDx=0;entryDy=0;exitX=0.5;exitY=1;exitDx=0;exitDy=0;" parent="1" source="9sAcsaAmfvEGhJB_O84w-87" target="9sAcsaAmfvEGhJB_O84w-92" edge="1">
          <mxGeometry relative="1" as="geometry">
            <mxPoint x="270" y="565" as="sourcePoint" />
            <mxPoint x="170" y="625" as="targetPoint" />
          </mxGeometry>
        </mxCell>
        <mxCell id="9sAcsaAmfvEGhJB_O84w-132" value="" style="endArrow=none;html=1;rounded=0;entryX=0.5;entryY=0;entryDx=0;entryDy=0;exitX=0.5;exitY=1;exitDx=0;exitDy=0;" parent="1" source="9sAcsaAmfvEGhJB_O84w-87" edge="1">
          <mxGeometry relative="1" as="geometry">
            <mxPoint x="332.5" y="470" as="sourcePoint" />
            <mxPoint x="307.5" y="570" as="targetPoint" />
          </mxGeometry>
        </mxCell>
        <mxCell id="9sAcsaAmfvEGhJB_O84w-133" value="" style="endArrow=none;html=1;rounded=0;entryX=0.5;entryY=1;entryDx=0;entryDy=0;exitX=1;exitY=0;exitDx=0;exitDy=0;" parent="1" source="9sAcsaAmfvEGhJB_O84w-115" target="9sAcsaAmfvEGhJB_O84w-113" edge="1">
          <mxGeometry relative="1" as="geometry">
            <mxPoint x="510" y="570" as="sourcePoint" />
            <mxPoint x="617.5" y="610" as="targetPoint" />
          </mxGeometry>
        </mxCell>
        <mxCell id="9sAcsaAmfvEGhJB_O84w-134" value="" style="endArrow=none;html=1;rounded=0;exitX=0.5;exitY=0;exitDx=0;exitDy=0;" parent="1" source="9sAcsaAmfvEGhJB_O84w-114" edge="1">
          <mxGeometry relative="1" as="geometry">
            <mxPoint x="554" y="620" as="sourcePoint" />
            <mxPoint x="630" y="530" as="targetPoint" />
          </mxGeometry>
        </mxCell>
        <mxCell id="9sAcsaAmfvEGhJB_O84w-135" value="" style="endArrow=none;html=1;rounded=0;exitX=0;exitY=0.5;exitDx=0;exitDy=0;" parent="1" source="9sAcsaAmfvEGhJB_O84w-117" edge="1">
          <mxGeometry relative="1" as="geometry">
            <mxPoint x="649.5" y="655" as="sourcePoint" />
            <mxPoint x="630" y="530" as="targetPoint" />
          </mxGeometry>
        </mxCell>
        <mxCell id="9sAcsaAmfvEGhJB_O84w-136" value="" style="endArrow=none;html=1;rounded=0;exitX=0.5;exitY=0;exitDx=0;exitDy=0;" parent="1" source="9sAcsaAmfvEGhJB_O84w-116" edge="1">
          <mxGeometry relative="1" as="geometry">
            <mxPoint x="710" y="620" as="sourcePoint" />
            <mxPoint x="630" y="530" as="targetPoint" />
          </mxGeometry>
        </mxCell>
        <mxCell id="9sAcsaAmfvEGhJB_O84w-137" value="" style="endArrow=none;html=1;rounded=0;entryX=1;entryY=0.5;entryDx=0;entryDy=0;exitX=0.5;exitY=0;exitDx=0;exitDy=0;" parent="1" source="9sAcsaAmfvEGhJB_O84w-57" edge="1">
          <mxGeometry relative="1" as="geometry">
            <mxPoint x="-65" y="500" as="sourcePoint" />
            <mxPoint x="-120" y="440" as="targetPoint" />
          </mxGeometry>
        </mxCell>
        <mxCell id="9sAcsaAmfvEGhJB_O84w-138" value="" style="endArrow=none;html=1;rounded=0;entryX=1;entryY=0.5;entryDx=0;entryDy=0;exitX=0;exitY=0.5;exitDx=0;exitDy=0;" parent="1" source="9sAcsaAmfvEGhJB_O84w-52" edge="1">
          <mxGeometry relative="1" as="geometry">
            <mxPoint x="-210" y="460" as="sourcePoint" />
            <mxPoint x="-210" y="420" as="targetPoint" />
          </mxGeometry>
        </mxCell>
        <mxCell id="9sAcsaAmfvEGhJB_O84w-139" value="" style="endArrow=none;html=1;rounded=0;entryX=1;entryY=0;entryDx=0;entryDy=0;exitX=0.986;exitY=0.723;exitDx=0;exitDy=0;exitPerimeter=0;" parent="1" source="9sAcsaAmfvEGhJB_O84w-64" target="9sAcsaAmfvEGhJB_O84w-9" edge="1">
          <mxGeometry relative="1" as="geometry">
            <mxPoint x="160" y="280" as="sourcePoint" />
            <mxPoint x="60" y="270" as="targetPoint" />
          </mxGeometry>
        </mxCell>
        <mxCell id="9sAcsaAmfvEGhJB_O84w-140" value="" style="endArrow=none;html=1;rounded=0;entryX=1;entryY=0;entryDx=0;entryDy=0;exitX=0.986;exitY=0.778;exitDx=0;exitDy=0;exitPerimeter=0;" parent="1" source="9sAcsaAmfvEGhJB_O84w-64" edge="1">
          <mxGeometry relative="1" as="geometry">
            <mxPoint x="134" y="208" as="sourcePoint" />
            <mxPoint x="80" y="282" as="targetPoint" />
          </mxGeometry>
        </mxCell>
        <mxCell id="9sAcsaAmfvEGhJB_O84w-141" value="" style="endArrow=none;html=1;rounded=0;entryX=0.767;entryY=0.946;entryDx=0;entryDy=0;exitX=0.421;exitY=-0.02;exitDx=0;exitDy=0;exitPerimeter=0;entryPerimeter=0;" parent="1" source="9sAcsaAmfvEGhJB_O84w-1" target="9sAcsaAmfvEGhJB_O84w-6" edge="1">
          <mxGeometry relative="1" as="geometry">
            <mxPoint x="259" y="81" as="sourcePoint" />
            <mxPoint x="170" y="110" as="targetPoint" />
          </mxGeometry>
        </mxCell>
        <mxCell id="9sAcsaAmfvEGhJB_O84w-142" value="" style="endArrow=none;html=1;rounded=0;entryX=0.767;entryY=0.946;entryDx=0;entryDy=0;exitX=0.432;exitY=-0.006;exitDx=0;exitDy=0;exitPerimeter=0;entryPerimeter=0;" parent="1" source="9sAcsaAmfvEGhJB_O84w-1" edge="1">
          <mxGeometry relative="1" as="geometry">
            <mxPoint x="120" y="241" as="sourcePoint" />
            <mxPoint x="95" y="120" as="targetPoint" />
          </mxGeometry>
        </mxCell>
        <mxCell id="9sAcsaAmfvEGhJB_O84w-143" value="" style="endArrow=none;html=1;rounded=0;entryX=0.767;entryY=0.946;entryDx=0;entryDy=0;entryPerimeter=0;" parent="1" edge="1">
          <mxGeometry relative="1" as="geometry">
            <mxPoint x="193" y="210" as="sourcePoint" />
            <mxPoint x="95" y="170" as="targetPoint" />
          </mxGeometry>
        </mxCell>
        <mxCell id="9sAcsaAmfvEGhJB_O84w-144" value="" style="endArrow=none;html=1;rounded=0;entryX=0.767;entryY=0.946;entryDx=0;entryDy=0;exitX=-0.055;exitY=0.14;exitDx=0;exitDy=0;exitPerimeter=0;entryPerimeter=0;" parent="1" source="9sAcsaAmfvEGhJB_O84w-37" edge="1">
          <mxGeometry relative="1" as="geometry">
            <mxPoint x="342.5" y="241" as="sourcePoint" />
            <mxPoint x="317.5" y="120" as="targetPoint" />
          </mxGeometry>
        </mxCell>
        <mxCell id="9sAcsaAmfvEGhJB_O84w-145" value="" style="endArrow=none;html=1;rounded=0;entryX=0.767;entryY=0.946;entryDx=0;entryDy=0;exitX=0;exitY=0.251;exitDx=0;exitDy=0;exitPerimeter=0;entryPerimeter=0;" parent="1" source="9sAcsaAmfvEGhJB_O84w-37" edge="1">
          <mxGeometry relative="1" as="geometry">
            <mxPoint x="270.5" y="250" as="sourcePoint" />
            <mxPoint x="340" y="161" as="targetPoint" />
          </mxGeometry>
        </mxCell>
        <mxCell id="9sAcsaAmfvEGhJB_O84w-146" value="" style="endArrow=none;html=1;rounded=0;entryX=0;entryY=0.5;entryDx=0;entryDy=0;exitX=0;exitY=0.5;exitDx=0;exitDy=0;exitPerimeter=0;" parent="1" target="9sAcsaAmfvEGhJB_O84w-11" edge="1">
          <mxGeometry relative="1" as="geometry">
            <mxPoint x="234.99999999999977" y="250.00000000000023" as="sourcePoint" />
            <mxPoint x="355.00000000000637" y="305.0000000000002" as="targetPoint" />
          </mxGeometry>
        </mxCell>
        <mxCell id="9sAcsaAmfvEGhJB_O84w-147" value="" style="endArrow=none;html=1;rounded=0;entryX=0.5;entryY=0;entryDx=0;entryDy=0;exitX=0.864;exitY=-0.036;exitDx=0;exitDy=0;exitPerimeter=0;" parent="1" source="9sAcsaAmfvEGhJB_O84w-108" target="9sAcsaAmfvEGhJB_O84w-17" edge="1">
          <mxGeometry relative="1" as="geometry">
            <mxPoint x="220" y="265" as="sourcePoint" />
            <mxPoint x="340" y="320" as="targetPoint" />
          </mxGeometry>
        </mxCell>
        <mxCell id="9sAcsaAmfvEGhJB_O84w-148" value="" style="endArrow=none;html=1;rounded=0;entryX=0.767;entryY=0.946;entryDx=0;entryDy=0;exitX=0.5;exitY=0;exitDx=0;exitDy=0;entryPerimeter=0;" parent="1" source="9sAcsaAmfvEGhJB_O84w-67" edge="1">
          <mxGeometry relative="1" as="geometry">
            <mxPoint x="560.5" y="59" as="sourcePoint" />
            <mxPoint x="630" y="-30" as="targetPoint" />
          </mxGeometry>
        </mxCell>
        <mxCell id="9sAcsaAmfvEGhJB_O84w-149" value="" style="endArrow=none;html=1;rounded=0;entryX=0.767;entryY=0.946;entryDx=0;entryDy=0;entryPerimeter=0;" parent="1" edge="1">
          <mxGeometry relative="1" as="geometry">
            <mxPoint x="540" y="-10" as="sourcePoint" />
            <mxPoint x="515" y="-60" as="targetPoint" />
          </mxGeometry>
        </mxCell>
        <mxCell id="9sAcsaAmfvEGhJB_O84w-150" value="" style="endArrow=none;html=1;rounded=0;entryX=0.767;entryY=0.946;entryDx=0;entryDy=0;entryPerimeter=0;exitX=0.75;exitY=0.167;exitDx=0;exitDy=0;exitPerimeter=0;" parent="1" source="9sAcsaAmfvEGhJB_O84w-38" edge="1">
          <mxGeometry relative="1" as="geometry">
            <mxPoint x="780" y="225" as="sourcePoint" />
            <mxPoint x="755" y="175" as="targetPoint" />
          </mxGeometry>
        </mxCell>
        <mxCell id="9sAcsaAmfvEGhJB_O84w-151" value="" style="endArrow=none;html=1;rounded=0;entryX=0.767;entryY=0.946;entryDx=0;entryDy=0;entryPerimeter=0;exitX=0.998;exitY=0.214;exitDx=0;exitDy=0;exitPerimeter=0;" parent="1" source="9sAcsaAmfvEGhJB_O84w-38" edge="1">
          <mxGeometry relative="1" as="geometry">
            <mxPoint x="835" y="165" as="sourcePoint" />
            <mxPoint x="780" y="130" as="targetPoint" />
          </mxGeometry>
        </mxCell>
        <mxCell id="9sAcsaAmfvEGhJB_O84w-152" value="" style="endArrow=none;html=1;rounded=0;entryX=0.767;entryY=0.946;entryDx=0;entryDy=0;entryPerimeter=0;exitX=0.766;exitY=1.066;exitDx=0;exitDy=0;exitPerimeter=0;" parent="1" source="9sAcsaAmfvEGhJB_O84w-85" edge="1">
          <mxGeometry relative="1" as="geometry">
            <mxPoint x="850" y="210" as="sourcePoint" />
            <mxPoint x="920" y="100" as="targetPoint" />
          </mxGeometry>
        </mxCell>
        <mxCell id="9sAcsaAmfvEGhJB_O84w-153" value="" style="endArrow=none;html=1;rounded=0;entryX=0;entryY=1;entryDx=0;entryDy=0;exitX=1;exitY=1;exitDx=0;exitDy=0;exitPerimeter=0;" parent="1" source="9sAcsaAmfvEGhJB_O84w-85" target="9sAcsaAmfvEGhJB_O84w-23" edge="1">
          <mxGeometry relative="1" as="geometry">
            <mxPoint x="950" y="225" as="sourcePoint" />
            <mxPoint x="1020" y="115" as="targetPoint" />
          </mxGeometry>
        </mxCell>
        <mxCell id="9sAcsaAmfvEGhJB_O84w-155" value="" style="endArrow=none;html=1;rounded=0;entryX=0.324;entryY=0.973;entryDx=0;entryDy=0;exitX=0.933;exitY=-0.047;exitDx=0;exitDy=0;exitPerimeter=0;entryPerimeter=0;" parent="1" source="9sAcsaAmfvEGhJB_O84w-18" target="9sAcsaAmfvEGhJB_O84w-24" edge="1">
          <mxGeometry relative="1" as="geometry">
            <mxPoint x="910" y="286" as="sourcePoint" />
            <mxPoint x="1025" y="180" as="targetPoint" />
          </mxGeometry>
        </mxCell>
        <mxCell id="9sAcsaAmfvEGhJB_O84w-156" value="" style="endArrow=none;html=1;rounded=0;entryX=0.5;entryY=1;entryDx=0;entryDy=0;exitX=0.933;exitY=-0.047;exitDx=0;exitDy=0;exitPerimeter=0;" parent="1" target="9sAcsaAmfvEGhJB_O84w-18" edge="1">
          <mxGeometry relative="1" as="geometry">
            <mxPoint x="749.5" y="299" as="sourcePoint" />
            <mxPoint x="878.5" y="260" as="targetPoint" />
          </mxGeometry>
        </mxCell>
        <mxCell id="9sAcsaAmfvEGhJB_O84w-157" value="" style="endArrow=none;html=1;rounded=0;exitX=0.933;exitY=-0.047;exitDx=0;exitDy=0;exitPerimeter=0;" parent="1" edge="1">
          <mxGeometry relative="1" as="geometry">
            <mxPoint x="780" y="360" as="sourcePoint" />
            <mxPoint x="850" y="250" as="targetPoint" />
          </mxGeometry>
        </mxCell>
        <mxCell id="9sAcsaAmfvEGhJB_O84w-158" value="" style="endArrow=none;html=1;rounded=0;exitX=0.933;exitY=-0.047;exitDx=0;exitDy=0;exitPerimeter=0;entryX=0.5;entryY=1;entryDx=0;entryDy=0;" parent="1" target="9sAcsaAmfvEGhJB_O84w-18" edge="1">
          <mxGeometry relative="1" as="geometry">
            <mxPoint x="850" y="390" as="sourcePoint" />
            <mxPoint x="920" y="280" as="targetPoint" />
          </mxGeometry>
        </mxCell>
        <mxCell id="9sAcsaAmfvEGhJB_O84w-159" value="" style="endArrow=none;html=1;rounded=0;exitX=0;exitY=0;exitDx=0;exitDy=0;" parent="1" source="9sAcsaAmfvEGhJB_O84w-25" edge="1">
          <mxGeometry relative="1" as="geometry">
            <mxPoint x="910" y="400" as="sourcePoint" />
            <mxPoint x="850" y="250" as="targetPoint" />
          </mxGeometry>
        </mxCell>
        <mxCell id="9sAcsaAmfvEGhJB_O84w-160" value="" style="endArrow=none;html=1;rounded=0;" parent="1" source="9sAcsaAmfvEGhJB_O84w-43" edge="1">
          <mxGeometry relative="1" as="geometry">
            <mxPoint x="1249" y="600" as="sourcePoint" />
            <mxPoint x="1140" y="510" as="targetPoint" />
          </mxGeometry>
        </mxCell>
        <mxCell id="9sAcsaAmfvEGhJB_O84w-161" value="" style="endArrow=none;html=1;rounded=0;entryX=0.5;entryY=1;entryDx=0;entryDy=0;exitX=0;exitY=0.5;exitDx=0;exitDy=0;" parent="1" source="9sAcsaAmfvEGhJB_O84w-42" target="9sAcsaAmfvEGhJB_O84w-41" edge="1">
          <mxGeometry relative="1" as="geometry">
            <mxPoint x="1220" y="590" as="sourcePoint" />
            <mxPoint x="1220" y="530" as="targetPoint" />
          </mxGeometry>
        </mxCell>
        <mxCell id="9sAcsaAmfvEGhJB_O84w-162" value="&lt;font size=&quot;1&quot; style=&quot;&quot; data-font-src=&quot;https://fonts.googleapis.com/css?family=Noto+Sans&quot; face=&quot;Noto Sans&quot;&gt;&lt;b style=&quot;font-size: 35px;&quot;&gt;E-R Diagram&lt;/b&gt;&lt;/font&gt;" style="text;strokeColor=none;fillColor=none;spacingLeft=4;spacingRight=4;overflow=hidden;rotatable=0;points=[[0,0.5],[1,0.5]];portConstraint=eastwest;fontSize=12;whiteSpace=wrap;html=1;" parent="1" vertex="1">
          <mxGeometry x="460" y="-260" width="230" height="70" as="geometry" />
        </mxCell>
      </root>
    </mxGraphModel>
  </diagram>
</mxfile>
